<svg xmlns="http://www.w3.org/2000/svg" width="800" height="300" viewBox="0 0 800 300">
  <defs>
    <style>
      .cls-1 {
        fill: #f0f0f0;
        fill-rule: evenodd;
      }
    </style>
  </defs>
  <path id="Farbfüllung_1" data-name="Farbfüllung 1" class="cls-1" d="M88,106c61.706,2.312,84.169,42,140,54,98.288,21.125,137.12-44.807,236-28,71.84,12.211,90.812,62.452,165,64,82.6,1.724,165.29-74.528,184-56,8.738,8.653-4.411,27.69,7,41,9.922,11.574,31.276,6.828,35,16,3.092,7.615-8.793,17.039-18,30-7.846,11.045-18.137,40.028-19,76-0.173,7.207,1.721,14.269,0,19-18.322,50.384-281.671-8.2-420,1C201.886,336.049,58.269,398.127-6,324c-16.979-19.584-3.683-63.259-30-83-24.38-18.288-59.79.03-66-11C-113.571,209.45-19.265,101.981,88,106Z"/>
</svg>
